<?xml version="1.0" standalone="no"?><!DOCTYPE svg PUBLIC "-//W3C//DTD SVG 1.1//EN" "http://www.w3.org/Graphics/SVG/1.1/DTD/svg11.dtd"><svg class="icon" width="200px" height="200.00px" viewBox="0 0 1024 1024" version="1.1" xmlns="http://www.w3.org/2000/svg"><path fill="#8a8a8a" d="M512 170.666667c194.446222 0 352.369778 157.724444 355.512889 353.408l0.042667 5.944889V583.111111h-28.444445v-53.091555C839.111111 347.221333 692.622222 199.111111 512 199.111111c-178.816 0-324.181333 145.166222-327.068444 325.432889l-0.042667 5.475556V583.111111h-28.444445v-53.091555C156.444444 331.591111 315.591111 170.666667 512 170.666667zM71.111111 526.222222m99.555556 0l0 0q99.555556 0 99.555555 99.555556l0 113.777778q0 99.555556-99.555555 99.555555l0 0q-99.555556 0-99.555556-99.555555l0-113.777778q0-99.555556 99.555556-99.555556ZM753.777778 526.222222m99.555555 0l0 0q99.555556 0 99.555556 99.555556l0 113.777778q0 99.555556-99.555556 99.555555l0 0q-99.555556 0-99.555555-99.555555l0-113.777778q0-99.555556 99.555555-99.555556ZM170.666667 526.222222a99.555556 99.555556 0 0 1 99.555555 99.555556v113.777778a99.555556 99.555556 0 0 1-199.111111 0v-113.777778a99.555556 99.555556 0 0 1 99.555556-99.555556z m0 28.444445a71.111111 71.111111 0 0 0-71.04 68.024889L99.555556 625.777778v113.777778a71.111111 71.111111 0 0 0 142.151111 3.086222L241.777778 739.555556v-113.777778a71.111111 71.111111 0 0 0-71.111111-71.111111zM853.333333 526.222222a99.555556 99.555556 0 0 1 99.555556 99.555556v113.777778a99.555556 99.555556 0 0 1-199.111111 0v-113.777778a99.555556 99.555556 0 0 1 99.555555-99.555556z m0 28.444445a71.111111 71.111111 0 0 0-71.04 68.024889L782.222222 625.777778v113.777778a71.111111 71.111111 0 0 0 142.151111 3.086222L924.444444 739.555556v-113.777778a71.111111 71.111111 0 0 0-71.111111-71.111111zM449.792 717.880889l51.797333-103.936 41.016889 157.084444 40.675556-79.217777H696.888889v28.444444l-96.241778-0.014222-66.730667 130.048-40.689777-155.804445-25.827556 51.84H327.111111v-28.444444z" /></svg>