<?xml version="1.0" standalone="no"?><!DOCTYPE svg PUBLIC "-//W3C//DTD SVG 1.1//EN" "http://www.w3.org/Graphics/SVG/1.1/DTD/svg11.dtd"><svg class="icon" width="200px" height="200.00px" viewBox="0 0 1024 1024" version="1.1" xmlns="http://www.w3.org/2000/svg"><path fill="#8a8a8a" d="M64.87 213.61c0 17.64 14.3 31.95 31.95 31.95h830.57c17.64 0 31.95-14.3 31.95-31.95 0-17.64-14.3-31.95-31.95-31.95H96.81c-17.64 0-31.94 14.31-31.94 31.95zM64.87 511.8c0 17.64 14.3 31.95 31.95 31.95h830.57c17.64 0 31.95-14.3 31.95-31.95 0-17.64-14.3-31.95-31.95-31.95H96.81c-17.64 0-31.94 14.3-31.94 31.95zM64.87 809.98c0 17.64 14.3 31.95 31.95 31.95h830.57c17.64 0 31.95-14.3 31.95-31.95 0-17.64-14.3-31.95-31.95-31.95H96.81c-17.64 0.01-31.94 14.31-31.94 31.95z" /></svg>