<?xml version="1.0" standalone="no"?><!DOCTYPE svg PUBLIC "-//W3C//DTD SVG 1.1//EN" "http://www.w3.org/Graphics/SVG/1.1/DTD/svg11.dtd"><svg class="icon" width="200px" height="200.00px" viewBox="0 0 1024 1024" version="1.1" xmlns="http://www.w3.org/2000/svg"><path fill="#8a8a8a" d="M854.51 192.54H168.16c-57.89 0-104.83 46.93-104.83 104.83v431.72c0 57.89 46.93 104.83 104.83 104.83h686.35c57.89 0 104.83-46.93 104.83-104.83V297.36c-0.01-57.89-46.94-104.82-104.83-104.82z m70.93 536.54c0 39.11-31.82 70.93-70.93 70.93H168.16c-39.11 0-70.93-31.82-70.93-70.93V297.36c0-39.11 31.82-70.93 70.93-70.93h686.35c39.11 0 70.93 31.82 70.93 70.93v431.72zM540.45 649.74h-36.8V452.6l-80.9 197.14h-34.62l-80.9-197.14v197.14h-36.8V383.37h47.01l88.18 217.54 87.82-217.54h47.01v266.37zM805.72 383.37L702.96 649.74h-36.07L564.13 383.37h39.35l81.62 215.36 81.26-215.36h39.36z" /></svg>