<?xml version="1.0" standalone="no"?><!DOCTYPE svg PUBLIC "-//W3C//DTD SVG 1.1//EN" "http://www.w3.org/Graphics/SVG/1.1/DTD/svg11.dtd"><svg class="icon" width="200px" height="200.00px" viewBox="0 0 1024 1024" version="1.1" xmlns="http://www.w3.org/2000/svg"><path fill="#8a8a8a" d="M907.49 276.03L528.51 68.66a34.408 34.408 0 0 0-33.03 0L116.51 276.03a34.413 34.413 0 0 0-17.89 30.18V717.8a34.4 34.4 0 0 0 17.89 30.18l378.98 207.36a34.408 34.408 0 0 0 33.03 0L907.5 747.98a34.413 34.413 0 0 0 17.89-30.18V306.21a34.418 34.418 0 0 0-17.9-30.18z m-33.78 421.36c0 6.27-3.42 12.03-8.92 15.04L520.23 900.98a17.123 17.123 0 0 1-16.46 0L159.21 712.43c-5.5-3.01-8.92-8.78-8.92-15.04V326.61c0-6.27 3.42-12.03 8.92-15.04l344.56-188.54a17.123 17.123 0 0 1 16.46 0l344.56 188.54c5.5 3.01 8.92 8.78 8.92 15.04v370.78zM512 355.38c-86.5 0-156.62 70.12-156.62 156.62S425.5 668.62 512 668.62 668.62 598.5 668.62 512 598.5 355.38 512 355.38z m0 261.56c-57.86 0-104.94-47.08-104.94-104.94S454.14 407.06 512 407.06 616.94 454.14 616.94 512 569.86 616.94 512 616.94z" /></svg>