<?xml version="1.0" standalone="no"?><!DOCTYPE svg PUBLIC "-//W3C//DTD SVG 1.1//EN" "http://www.w3.org/Graphics/SVG/1.1/DTD/svg11.dtd"><svg t="1714556597196" class="icon" viewBox="0 0 1024 1024" version="1.1" xmlns="http://www.w3.org/2000/svg" p-id="25323" xmlns:xlink="http://www.w3.org/1999/xlink" width="200" height="200"><path d="M512 970.656c-252.896 0-458.656-205.76-458.656-458.656S259.104 53.344 512 53.344 970.656 259.104 970.656 512a32 32 0 1 1-64 0c0-217.6-177.024-394.656-394.656-394.656C294.4 117.344 117.344 294.4 117.344 512 117.344 729.632 294.4 906.656 512 906.656a32 32 0 1 1 0 64z" p-id="25324" fill="#8a8a8a"></path><path d="M426.656 691.744a32.096 32.096 0 0 1-32-32v-295.552a31.936 31.936 0 0 1 48-27.712l256 147.776a32 32 0 0 1 0 55.424l-256 147.776a32.096 32.096 0 0 1-16 4.288z m32-272.128v184.704l160-92.352-160-92.352zM790.432 928a32 32 0 0 1-32-32v-213.344a32 32 0 1 1 64 0V896a32 32 0 0 1-32 32z" p-id="25325" fill="#8a8a8a"></path><path d="M896 820.256h-213.344a32 32 0 1 1 0-64H896a32 32 0 1 1 0 64z" p-id="25326" fill="#8a8a8a"></path></svg>