<?xml version="1.0" standalone="no"?><!DOCTYPE svg PUBLIC "-//W3C//DTD SVG 1.1//EN" "http://www.w3.org/Graphics/SVG/1.1/DTD/svg11.dtd"><svg class="icon" width="200px" height="200.00px" viewBox="0 0 1024 1024" version="1.1" xmlns="http://www.w3.org/2000/svg"><path fill="#8a8a8a" d="M693.3 448L226.8 156.8c-35.5-22.3-82.4-11.5-104.7 24-7.5 12-11.5 25.8-11.6 40v582c0.2 41.9 34.4 75.8 76.3 75.6 14.1-0.1 28-4.1 40-11.6L693.3 576c35.3-22.6 45.7-69.5 23.1-104.9-5.9-9.3-13.8-17.2-23.1-23.1zM913.3 201.2c2.2-26-16.7-49.1-42.7-51.9-26 2.8-44.9 25.8-42.7 51.8v621.7c-2.2 26 16.7 49 42.7 51.8 26-2.8 44.9-25.8 42.7-51.8V201.2z" /></svg>