<?xml version="1.0" standalone="no"?><!DOCTYPE svg PUBLIC "-//W3C//DTD SVG 1.1//EN" "http://www.w3.org/Graphics/SVG/1.1/DTD/svg11.dtd"><svg class="icon" width="200px" height="200.00px" viewBox="0 0 1024 1024" version="1.1" xmlns="http://www.w3.org/2000/svg"><path fill="#8a8a8a" d="M896.3 504.16c0 226.33-196.69 407.59-428.12 381.81-176.43-19.65-318.44-161.79-337.98-338.23-9.23-83.37 8.42-162.21 45.35-228.96 11.23-20.3-4.05-45.18-27.25-45.18-11.01 0-21.39 5.76-26.71 15.41-36.69 66.44-56.93 143.24-55.18 224.91C71.3 743.3 254.5 934.75 483.48 949.02c259.11 16.14 474.29-189.23 474.29-444.85 0-78.02-20.06-151.35-55.28-215.14-5.33-9.65-15.72-15.42-26.74-15.42h-0.07c-23.6 0-38.12 25.25-26.74 45.93 30.17 54.82 47.36 117.75 47.36 184.62zM707.73 369.96c-12.01-12.01-31.47-12.01-43.47 0L542.77 491.44V104.53c0-16.98-13.76-30.74-30.74-30.74-16.98 0-30.74 13.76-30.74 30.74v386.91L359.81 369.96c-12.01-12.01-31.47-12.01-43.47 0s-12.01 31.47 0 43.47l173.95 173.94c0.37 0.37 0.81 0.63 1.2 0.98 1.11 1 2.22 2 3.47 2.83 0.88 0.59 1.83 1.01 2.76 1.5 0.85 0.45 1.65 0.97 2.54 1.34 1.1 0.46 2.25 0.73 3.38 1.05 0.79 0.23 1.55 0.54 2.36 0.7 1.99 0.4 4.01 0.61 6.03 0.61h0.02c2.02 0 4.04-0.21 6.03-0.61 0.82-0.16 1.57-0.47 2.36-0.7 1.14-0.32 2.28-0.59 3.38-1.05 0.89-0.37 1.69-0.89 2.54-1.34 0.93-0.49 1.88-0.91 2.76-1.5 1.24-0.83 2.36-1.83 3.47-2.83 0.39-0.35 0.82-0.61 1.2-0.98l173.95-173.94c11.99-12 11.99-31.46-0.01-43.47z" /></svg>