<?xml version="1.0" standalone="no"?><!DOCTYPE svg PUBLIC "-//W3C//DTD SVG 1.1//EN" "http://www.w3.org/Graphics/SVG/1.1/DTD/svg11.dtd"><svg class="icon" width="200px" height="200.00px" viewBox="0 0 1024 1024" version="1.1" xmlns="http://www.w3.org/2000/svg"><path fill="#8a8a8a" d="M896.325667 103.521748c0-2.509147-0.440022-4.892427-1.192152-7.107885l-1.650593-15.972786c-1.213641-11.790534-11.645225-19.777439-23.26896-17.72878L339.751473 156.2476c-9.595542 1.714038-16.578584 9.616008-17.560958 18.857487-2.446725 3.51301-3.889587 7.820106-3.889587 12.4608L318.300928 727.164454c-18.877953-10.662851-40.829917-16.808828-64.224744-16.808828-70.935586 0-128.449487 56.279794-128.449487 125.646652 0 69.368904 57.513902 125.606743 128.449487 125.606743S382.525672 905.371182 382.525672 836.002278c0-4.848425-0.272199-9.614985-0.815575-14.300704 0.543376-1.880837 0.815575-3.88754 0.815575-5.936199L382.525672 383.124817l449.574229-79.277578 0 297.709449c-18.877953-10.704806-40.829917-16.808828-64.224744-16.808828-70.935586 0-128.449487 56.237839-128.449487 125.606743 0 69.408813 57.513902 125.646652 128.449487 125.646652s128.449487-56.237839 128.449487-125.646652c0-4.76656-0.272199-9.533121-0.815575-14.176884 0.543376-1.880837 0.815575-3.845585 0.815575-5.852288L896.324644 103.521748zM254.076184 898.639874c-35.478026 0-64.224744-28.182876-64.224744-62.929238s28.746718-62.929238 64.224744-62.929238 64.224744 28.182876 64.224744 62.929238S289.55421 898.639874 254.076184 898.639874zM767.87618 772.781398c-35.479049 0-64.225767-28.180829-64.225767-62.969147 0-34.748409 28.746718-62.929238 64.225767-62.929238 35.478026 0 64.224744 28.180829 64.224744 62.929238C832.0999 744.600569 803.354206 772.781398 767.87618 772.781398zM832.0999 238.5777 382.525672 317.855278 382.525672 214.074633l449.574229-78.189803L832.0999 238.5777z" /></svg>